<svg xmlns="http://www.w3.org/2000/svg" xmlns:xlink="http://www.w3.org/1999/xlink" width="371.522" height="35.33" viewBox="0 0 371.522 35.33">
  <defs>
    <clipPath id="clip-path">
      <rect id="Rectangle_120" data-name="Rectangle 120" width="370.967" height="22.397" fill="none"/>
    </clipPath>
  </defs>
  <g id="text-element" transform="matrix(0.999, 0.035, -0.035, 0.999, 0.782, 0)">
    <g id="Group_218" data-name="Group 218" clip-path="url(#clip-path)">
      <path id="Path_187" data-name="Path 187" d="M1035.478,195.944c.752-.215,1.925-.765,1.237-.708l-2.456.878c.219-.027.418-.056.616-.085Z" transform="translate(-668.919 -180.074)" fill="#f9ba49"/>
      <path id="Path_188" data-name="Path 188" d="M1029.673,177.965a22.477,22.477,0,0,0-5.488,1.991c2.53-.829,1.837-.444,4.814-1.432.741-.054.194.389-.658.718.709-.217.286.284,1.87-.263,1.012-.779.221-.9-1.944-.4a6.878,6.878,0,0,1,1.405-.61" transform="translate(-662.404 -164.148)" fill="#f9ba49"/>
      <path id="Path_189" data-name="Path 189" d="M902.006,101.255l.171.14c0-.071-.063-.114-.171-.14" transform="translate(-583.383 -93.394)" fill="#f9ba49"/>
      <path id="Path_190" data-name="Path 190" d="M809.7,65.42a1.081,1.081,0,0,0,.612-.194c-.312.053-.575.1-.612.194" transform="translate(-523.681 -60.162)" fill="#f9ba49"/>
      <path id="Path_191" data-name="Path 191" d="M796.575,49.3c.093.038.184.057.275.085-.036-.1-.116-.156-.275-.085" transform="translate(-515.195 -45.44)" fill="#f9ba49"/>
      <path id="Path_192" data-name="Path 192" d="M900.85,96.868l-.429-.369c-.528.315.1.269.429.369" transform="translate(-582.227 -89.007)" fill="#f9ba49"/>
      <path id="Path_193" data-name="Path 193" d="M1007.152,195.51a6.333,6.333,0,0,0,.945-.2c-.222.027-.425.048-.614.059l-.331.144" transform="translate(-651.388 -180.144)" fill="#f9ba49"/>
      <path id="Path_194" data-name="Path 194" d="M946.393,100.849l.269.019c.259-.1.551-.231.868-.375Z" transform="translate(-612.091 -92.691)" fill="#f9ba49"/>
      <path id="Path_195" data-name="Path 195" d="M973.883,114.877a15.552,15.552,0,0,0-2.44,1.1,6.07,6.07,0,0,1,1.527-.511,8.924,8.924,0,0,0,.913-.585" transform="translate(-628.293 -105.956)" fill="#f9ba49"/>
      <path id="Path_196" data-name="Path 196" d="M1019.3,152.46l.523-.081c-.148.027-.344.046-.523.081" transform="translate(-659.248 -140.549)" fill="#f9ba49"/>
      <path id="Path_197" data-name="Path 197" d="M924.665,91.281a2.232,2.232,0,0,0,.356-.3,1.58,1.58,0,0,0-.356.3" transform="translate(-598.038 -83.914)" fill="#f9ba49"/>
      <path id="Path_198" data-name="Path 198" d="M81.843,271.266c-.171-.05-.293-.079-.444-.121a1.373,1.373,0,0,0,.444.121" transform="translate(-52.646 -250.094)" fill="#f9ba49"/>
      <path id="Path_199" data-name="Path 199" d="M16.073,248.565V248.5c-.483-.127-.957-.251-1.444-.372Z" transform="translate(-9.461 -228.866)" fill="#f9ba49"/>
      <path id="Path_200" data-name="Path 200" d="M768.994,28.551a.142.142,0,0,0,.033.019c.375-.085.2-.075-.033-.019" transform="translate(-497.356 -26.295)" fill="#f9ba49"/>
      <path id="Path_201" data-name="Path 201" d="M479.8,17.305c1.4.761-1.533,1.027.47,1.865-.28-.337,1.132-1.381-.47-1.865" transform="translate(-310.153 -15.961)" fill="#f9ba49"/>
      <path id="Path_202" data-name="Path 202" d="M1006.237,195.844a3.09,3.09,0,0,1-.43-.034.929.929,0,0,0,.43.034" transform="translate(-650.518 -180.608)" fill="#f9ba49"/>
      <path id="Path_203" data-name="Path 203" d="M481.6,41.33l0,.008.2.079-.2-.087" transform="translate(-311.483 -38.121)" fill="#f9ba49"/>
      <path id="Path_204" data-name="Path 204" d="M696.438,23.671a.628.628,0,0,0,.019.386.426.426,0,0,0-.019-.386" transform="translate(-450.415 -21.833)" fill="#f9ba49"/>
      <path id="Path_205" data-name="Path 205" d="M746.039,46.368l-.359-.134a.735.735,0,0,0,.359.134" transform="translate(-482.278 -42.644)" fill="#f9ba49"/>
      <path id="Path_206" data-name="Path 206" d="M665.755,34.38c-.217-.073-.241-.195-.643-.088a.244.244,0,0,0,.051.109.5.5,0,0,1,.593-.021" transform="translate(-430.169 -31.59)" fill="#f9ba49"/>
      <path id="Path_207" data-name="Path 207" d="M638.32,33.157a1.123,1.123,0,0,0,.117.178c.107-.015.23-.027.339-.041Z" transform="translate(-412.841 -30.583)" fill="#f9ba49"/>
      <path id="Path_208" data-name="Path 208" d="M139.641,214.744c-.772-.183-1.544-.4-2.286-.61,1.643.506,1.049.854,2.286.61" transform="translate(-88.836 -197.509)" fill="#f9ba49"/>
      <path id="Path_209" data-name="Path 209" d="M1007.989,192.166a4.075,4.075,0,0,1-.967.317c.118,0,.246-.005.376-.014a2.816,2.816,0,0,0,.59-.3" transform="translate(-651.304 -177.246)" fill="#f9ba49"/>
      <path id="Path_210" data-name="Path 210" d="M653.307,122.006c-.469-.056-.941-.108-1.412-.162a6.979,6.979,0,0,0,1.412.162" transform="translate(-421.621 -112.384)" fill="#f9ba49"/>
      <path id="Path_211" data-name="Path 211" d="M312.539,141.6l-.179.123c.15.01.23-.022.179-.123" transform="translate(-202.023 -130.605)" fill="#f9ba49"/>
      <path id="Path_212" data-name="Path 212" d="M637.778,114.871a1.171,1.171,0,0,0-.577-.619,1.338,1.338,0,0,0-.267.22Z" transform="translate(-411.945 -105.382)" fill="#f9ba49"/>
      <path id="Path_213" data-name="Path 213" d="M137.282,214.037l.025.007-.025-.007" transform="translate(-88.789 -197.419)" fill="#f9ba49"/>
      <path id="Path_214" data-name="Path 214" d="M45.736,19.518c1.188-.151-2.381-1-3.845-1.583.546-.48,2.817.6,4.788,1.012.06-.378-1.968-1.354-1.2-1.413a6.8,6.8,0,0,1,1.277.407c-.69-.445-.023-.553.587-.687s1.165-.3.306-.856c.332.074.609.149.842.219-1.587-.458-3.055-.945-4.04-1.3.5-.094-.75-.756,1.288-.153-.391.029.32.288.738.508l-.225-.356c3.141.838.132.426,2.088,1.1.118-.225-.043-.572-.029-.847s.2-.476,1.007-.4c1.354.437,1.057.577.86.693s-.3.2,1.384.521l-2.271-.157c5.027,1.267-1.059.012,4.167,1.389,2.385.021.58-.716,3.013-.679-1-.551-2.178-.724-3.174-1.276,0-.614,2.052-.111,3.885.369s3.47.935,2.743.211c-1.151-.666-4.013-1.852-1.08-1.4l2.25,1.089c1.947-.1-2.876-1.609.714-1.13.718.448-.464.508.11.6,3.246.681-.69-.689.213-.8l2.509.9a4.681,4.681,0,0,0,1.628-.829,5.327,5.327,0,0,1,1.841-.851,5.47,5.47,0,0,0,2.039.857,9.935,9.935,0,0,1,3.893-.5c1.722.008,3.731.161,5.574.314l-.81-.924a2.793,2.793,0,0,1,1.3.515c1.634.212-1.06-.53-1.275-.9a2.994,2.994,0,0,1,1.907.684,1.477,1.477,0,0,1,.445-.678,3.005,3.005,0,0,1,1.052-.569,8.068,8.068,0,0,1,4.056-.047l.122.284c1.049.1.624-.367.308-.781s-.535-.775.9-.44l.016.172a44.857,44.857,0,0,0,5.071-.333,18.868,18.868,0,0,1,2.566-.046,17.808,17.808,0,0,1,3.1.468c-.8-.634.237-.561,1.128-.545s1.646-.026.371-.9c1.619.354,2.4.62,3.229.843a21.015,21.015,0,0,0,3.421.607c.805.031-.6-1.159,0-1.4l1.365.909-.224-1.04,2.2,1.046.468-.292a4.081,4.081,0,0,1-1.6-.628,3.915,3.915,0,0,1,2.352.081,8.757,8.757,0,0,1,2.324.815q.96-.483,1.964-.97c.418.374.081.534,0,.795.362-1.041,1.561.95,1.891,0-.467-.2-.6-.555-.811-.744a6.777,6.777,0,0,0,2.218.355,6.206,6.206,0,0,0,1.854-.249l.541.651a20.056,20.056,0,0,0,3.381-.291c.548-.082,1.1-.17,1.675-.246s1.179-.131,1.813-.16c-1.231-.254-2.253-1.375-1.6-1.521l1.364.968c-.166-.632-1.192-.331-.988-1.126,1.1.064,1.837,1.087,1.639,1.435l.793-.4c.377.291.27.46.6.839-.088-.318.668-.1,1.382.069s1.389.273,1.191-.277l.36.291a23.245,23.245,0,0,0,2.867-.311,23.9,23.9,0,0,1,2.5-.332c-.729-.859.255-.7.279-1.426.449.051.928.127,1.422.209s1.007.177,1.516.257a12.875,12.875,0,0,0,2.932.207c.977-.478-.183-.743.019-1.278.7.78,2.51.636,1.964,1.236.534-.053.972-.1,1.366-.143s.749-.092,1.108-.156a24.118,24.118,0,0,0,2.7-.688c-.522-.313-.969-.441-.963-.716a1.762,1.762,0,0,1,1.579.673l-.085.085a4.481,4.481,0,0,1,2.462-.247,29.2,29.2,0,0,1,3.076.6c2.065.472,3.936.888,4.812.032l-.1.084q1.118-.457,2.273-.914c1.291.112-.474.61.648,1.082a5.453,5.453,0,0,1,3.419-.584,6.462,6.462,0,0,0,3.211-.233c1.306,1.156,2.876,1.091,4.529.918s3.391-.435,4.761.3l-.249-.551c.534-.548.831.308,1.318.43-.141-.428-.78-.489-.438-.793.663-.09,1.339-.147,2.025-.176s1.383-.024,2.084,0c1.4.046,2.824.176,4.24.343s2.831.382,4.226.579,2.774.38,4.136.512c1.982.158,1.378-2.853,3.84-1.521l-.839,1.022a14.6,14.6,0,0,1,3.161-.514c1.053-.061,2.1-.039,3.143-.013a24.8,24.8,0,0,0,6.3-.361c-.306.233-.395.54-.786.531.645.756,3.116.08,3.329-.527.609.078-.023.551.266.865.355.225.96,0,1.511-.2s1.044-.345,1.141.029c.035.122-.323.237-.5.291.678-.35,2.54.139,2.326-.728,1.354.437,3.054-.33,4.055.2,1.2-.939,2.383.518,3.249-.829-.744,1.4,2.113,1.186,3.411.551-.533.414.609.459-.065,1.034,1.09.009,2.222-.224,2.418-.945.558.861,1.737.552,2.8.3s1.993-.449,1.913.637c1.834-.325,3.593-.591,5.291-.806s3.33-.367,4.919-.48c-1.089,1.381-3.342.027-4.207,1.486,1.563-.238,2.958-.641,4.286-.93a9.874,9.874,0,0,1,3.838-.246c.569.215-.863.583-1.278.811a20.73,20.73,0,0,1,4.2-.092,15.48,15.48,0,0,0,4.1-.229,2.322,2.322,0,0,1-.838.352c.522-.025.951.248,1.432-.379l-.618.15c-.016-.941,3.567-1.816,4.089-2.291-2.4,1.757,2.073.553-1.258,2.761a2.633,2.633,0,0,0,1.389-.805c.367.142.293.394-.611.848,2.032-.262,2.027-.953,3.593-.868a9.666,9.666,0,0,1-1.2.752c1.335-.553,2.7-1.106,3.8-.79-.254.178-.327.422-.72.4a21.035,21.035,0,0,0,3.853-.6,7.183,7.183,0,0,1,3.562-.091c-2.088,1.271.414.472-.632,1.609l1.688-.267.04-.576c1.153.08,3.084-.687,3.7-.265l-1.382.419,2.444-.1L281.67,8.9c1.839-.518,1.43-1.433,2.681-1.036-.451.1,1.187.079,1.058.777a.011.011,0,0,0-.007,0c.991-.326,2.034-.67,2.6-.341-.186.372-1.615,1.233-1.742,1.48,1.661-.908,3.058-.108,4.974-1.062a4.321,4.321,0,0,0-1.3.933l1.391-.733c.258.276.194.4-.458.862,1.471.235,1.191-1.452,2.407-.725a5.752,5.752,0,0,1-.753.267,10.258,10.258,0,0,0,2.947.093,8.046,8.046,0,0,1,2.772.134c-.908,1.156-1.914.179-2.514,1.164,1.406-.022,3.171-.281,4.855-.472a16.25,16.25,0,0,1,4.367-.114l-.3-.154c1.241-.778,1.45-.553,1.622-.216s.3.787,1.448.458a4.317,4.317,0,0,0-1.29.678c1.338.367,4-.156,7.3-.466l-.907.381c.473.43,2.325.39,3.121.653.918-.378,1.438-.268,1.943-.879-.061,1.265,1.957,1.071,4.04.836s4.225-.524,4.154.538c-.356-.023-1.392.284-1.116.306l3.072-.172c.912-.691.346-.434.679-1a7.929,7.929,0,0,1,2.819-.581c-1.871.358-1.773,1.084-1.921,1.5.262-.213.8-.428,1.113-.641-.7,1.3,2.478-1.338,2.92-.386l-.689.346a12.519,12.519,0,0,1,2.934-.383c-1.03.8-1.33.3-2.464.94,1.073.036,4.514-1.306,4.094-.456-.8.18-1.425.132-2.221.312-.58.994-.074.772.406.977l-.036-.027.958.553.009-.283c2.394-.956,3.2-.992,3.9-.938a7.169,7.169,0,0,0,3.339-.384c-3.9,1.1-1.574.7-3.285,1.56-.014.281.131.609-.5.839,2.071-.635.277.668,3.278-.262-.468.283.782.1-.706.791,1.418-.129.674-.509,1.412-.853,1.676-.408,2.061-.033,2.6.3s1.217.638,3.611.09c2.974-.351,5.2-1.256,7.968-1.541a2.869,2.869,0,0,1-1.376.668c-.6.177-1.161.291-1.161.291.158.5,1.037.5,2.608.275a2.814,2.814,0,0,0-1.272.782c.876,0,2.574-.954,2.7-.451-.807.289-2.047.759-3.036,1.032,1.378-.168,3.3-.594,4.721-.751a12.859,12.859,0,0,1-3.05.951,19.558,19.558,0,0,0,5.423-.89l-.057-.336c.447,0-1.219.667-1.783.777-2.122.5-.659-.389-.124-.67l1.011-.11c1.4-.837.605-.841-.659-.66a20.618,20.618,0,0,1-3.54.433l2.982-1.121-3.356.842a5.292,5.292,0,0,1,2.51-1.123c.247-.677-1.691.336-1.182-.393a.908.908,0,0,1,.45-.2l-1.64.261c.682-.23,1.525-.849,1.755-.622-.319-.848-4.474.627-3.328-.331l.284-.059a5.265,5.265,0,0,0-2.6.6,10.308,10.308,0,0,1-3.057,1.11l2.984-2.263-1.907.852c-.179-.054-.53-.164.225-.505-2.039.517-.573.394-2.169.912.349-.9-3.874.084-1.539-1.337-1.654.631.155.614-1.944.968,2.425-1.537-1.906.131-1.7-.654,1.74-.75,2.01-.247,2.2-1.038-3.034,1.259-1.573-.47-2.947-.3-1.912,1.047-2.748.267-4.887.492.713-.346-1.867-.82-2.664-1.317l.341-.174c-2.078,1.048-3.2.725-4.64.862a8.4,8.4,0,0,1,2.77-1.117l-1.027-.076a7.119,7.119,0,0,1-2.276.552l1.564-.782c-1.44-.063-4.248.73-5.14.062-1.274.745-1.946,2.194-4.54,2.56a7.206,7.206,0,0,1,2.336-1.242c-.239.04-1.087.3-1.129.1l1.8-.628c-.318-.36-1.31.54-1.838.429.919-.579.18-.449.988-.9.25-.044.178.281.776.072-.55-.158-.88-.568-.49-1.029a3.948,3.948,0,0,1-1.849.818c-1.423-.057.608-.733.267-1.09-.947.38-1.185-.1-2.523.766-.391-.033.147-.445.348-.692-1.283.331-3.472-.128-4.044.857l.09.074c-.06.016-.1.014-.171.03h0A7.024,7.024,0,0,1,315.023,8a7.744,7.744,0,0,0-3.188-.487l.412-.293c-1.838.242-3.334-.008-5.168.563-.4-.027-.235-.6.407-.938-1.353.153-1.9.476-2.785-.108,1.736-.446.23-.479,1.584-.306-1.037-.343-.749-.836-3.272-.12,1.481-.725.174-1.016-.774-.831l.282.6a7.064,7.064,0,0,1-2.015-.147l1.608-.974c-.669-.7-2.621-.255-4.324.089s-3.18.592-3.07-.49c-1.578.656.97.583-.675,1.362-1.131-.212-.841-1.721-1.259-1.748-1.191-.656-3.361,1.371-4.81.887a3.618,3.618,0,0,1-2.761,1.6c-1.146-.2.034-1.587,1.183-1.831.35-.014.378.108.231.229.569-.109,1.3-.232,1.2-.648l-.567.349c-.253-.4-2.124-.456-1.06-1.023-1.377.29-1.061.567-.522.791-1.145-.607-2.636-.155-4.028-.592.076.212-.106.646-.38.629-2.112-.57-1.83.627-3.714.7-.432-.6,1.665-1.293-.544-.918-.7-.424.712-.967,1.437-1.239-2.293.614-2.578-.6-3.4-.77l1.138-.252a5.015,5.015,0,0,1-1.525.1l-.192.744c-.383-.149-.806-.171-.515-.471-.958.45-.735,1.219-2.352,1.82-.323-.4-2.365.3-1.723-.666,1.792.42.642-.974,2.565-1.048A2.137,2.137,0,0,1,271.2,2.5c.022-.111.252-.2.44-.244-1.253-.949-1.912,1.044-3.97.934.741-.53.414-1.047-.032-.946.839.046-.387.92-1.511,1.3-.97-.477-1.713.254-2.363.176l.624.231c-.727.531-1.325.433-2.383.565.271-.426,1.075-.256.9-.456a1.288,1.288,0,0,1-1.674-.124,1.676,1.676,0,0,0-1.8-.366c-.376-.394.741-1.023.347-1.295-2.172.644-1.2-.813-3.361-.293-.047.748.162.572-1.563,1.244,1.059-.141,2.118-.276,3.183-.412l-2.593.995c.826.042,2.116-.393,2.523-.249-1.309.564-1.077.386-1.147,1.007-.146-.57-.838-.432-1.575-.25s-1.529.412-1.916.018l1.362-1.811c-.717-.438-1.791-.237-2.954.007a8.509,8.509,0,0,1-3.575.259l.63.341c-.829.71-1.674.052-2.707.319.468-.6.081-.842-.045-1.231-.238.452-1.9-.1-2.876,1.107l-.685-.836c-1.941-.387-3.408,1.669-5.288,1.408.967-.646.277-1.1,1.9-1.539-.678-.024-1.232-.152-1.469.27-.2-.392-2.311.771-2.632.176-.422.26-.836.9-1.565.829-.022-.125.152-.3.152-.3-.154.3-1.382.384-1.054,1.073-.563-.974-2.043-.972-3.485-.936s-2.86.112-3.445-.722c-1.565.178-3.415.342-4.768.362.148-.181.108-.3.34-.237-1.669-.6-1.716,1.737-3.592,1.072-.772-1,1.277-.519.724-.9.166-1.009-.5-.949-1.337-.786s-1.828.428-2.39-.17l.379-.114c-.459-.349-1.183-.169-2,.08a7.032,7.032,0,0,1-2.6.489s.124-.177.074-.3c-1.44,1.017-3.771,1.333-5.5,1.606.64-.787.833-.411.627-1.217-.781.109.028,1.288-1.508,1.505-.431-.434-1.48-.817-1.536-1.674l1.456-.039c-.61-1.111-1.889.029-2.627-.167l.144-.483a5.151,5.151,0,0,0-2.327.726,4.277,4.277,0,0,1-2.4.547l.231.366c-1.321,1.209-1.066-.679-2.369.219l-.385-1.226a29.786,29.786,0,0,1-4.485,1.419c.806-.915,2.6-1.376,3.72-1.917-.86-.009-2.925.089-3.336.7.337-.12.759-.419,1.107-.231a5.49,5.49,0,0,1-4,1.432c.043-1.189-1.079-1.333-2.394-1.41a14.851,14.851,0,0,1-1.995-.187,2.7,2.7,0,0,1-1.595-.813,11.25,11.25,0,0,1-4.588.206c-.809-.084-1.644-.195-2.5-.266a18.883,18.883,0,0,0-2.611-.062c1.808,1.826-1.023.068-.218,1.959-.771.133-1.089.107-1.2-.014q-1.413-.547-2.866-1.093c-.794-.542.635-.429.41-.853C165.792,1.153,166.615.478,165.2,0c.505.672-.267.982-1.415.745l1.809.843a2.37,2.37,0,0,1-2.489-.243,2.446,2.446,0,0,0-2.526-.249l.554-.612c-.589.189-1.818.211-2.971.38s-2.221.495-2.459,1.269c-.344-.212-.929-.719-.42-.871A16.316,16.316,0,0,0,150.646,2a8.2,8.2,0,0,1-4.375.216l-.068-.467c-.5.152-.432.9-1.476.456-.093-.191-.08-.466-.37-.484a2.263,2.263,0,0,1-1.944.612l.289-.538a4.767,4.767,0,0,0-3.468.583,6.637,6.637,0,0,1-2.486,1.254,4.934,4.934,0,0,0-2.52-1.371,19.092,19.092,0,0,0-2.746-.478l-.126-.192a11.147,11.147,0,0,0-4.256.77,29.633,29.633,0,0,1-3.43,1.293,14.821,14.821,0,0,0-5.571-.714,36.486,36.486,0,0,1-6.044-.155c.784.211,1.155,1.035.751,1.2-1.085-.225-.933,1.034-2.322-.182l.3.008c-2.049-1.157-3.226-.74-4.479-.694L108.161,4.7a10.292,10.292,0,0,0-6.412-.341,7,7,0,0,1-5.156-.2c-.176.444-1.116.506-1.263.948l-1.236-.836c-.606-.016-1.138-.029-1.631-.034s-.937,0-1.382.022A21.032,21.032,0,0,0,88.2,4.6l-.439-.633c-1.57.063,2.1,2.529.893,2.679l-2.479-1.2c-1.242.105-2.937-.044-4.421-.064s-2.727.1-2.934.759c-.289-.182-.865-.54-.55-.624-.615.036-2.145-.073-3.068.02s-1.23.383.577,1.192c-2.106-1.078-2.747.136-3.089.733l-1.38-.812c.913,1.118,1.447,1.4.5,1.821-.568-.067-1.617-.6-.72-.445-2.055-.293.617.841-1.691.569l-.516-.558c-1.356.067-.7.326-.12.979-.086.393-2.717.041-4.451-.645.772.447,1.375,1.091.212.962-.688-.256-.793-.448-.839-.542-1.62-.161-1.861.155-2.084.425s-.422.5-1.991.2a8,8,0,0,0-1.3-.434,20.482,20.482,0,0,1,3.053-.2c-1.609-.715-3.226-.691-4.406-1.8a5.613,5.613,0,0,1,.308,1.238c-.014.4-.29.693-1.321.6-.224-.062-.444-.122-.749-.226l-.055-.094c-.463-.037-.573.059-.539.206a9.27,9.27,0,0,0-1.573-.093A4.067,4.067,0,0,0,51.2,8.346c-.46.044-.812.165-1.172.19,1.94.762.8.74,3.144,1.278-.235-.042-.1-.106.241-.19.04-.034.125-.06.077-.113l.122.073c.36-.075.875-.154,1.478-.237.429.451.7.836-1.038.5.882.534,1.779,1.084,2.169,1.346C52.741,10.223,49.6,9.853,47.7,9.227c-.444.334-1.42.546-1.974.871s-.644.773.656,1.556c-.045.252-1.7-.324-2.5-.519-.071-.183.359-.21-.016-.435-.109.5-2.835.565-.378,1.576-2.572-.264-1.737-1-3.155-.6l-.582-.332a15.157,15.157,0,0,0-2.3-.169,2.4,2.4,0,0,0-1.094.215c-.421.24-.318.641-.252,1.029s.094.761-.5.949a11.978,11.978,0,0,1-4.3-.151,8.557,8.557,0,0,1,1.479.265,20.45,20.45,0,0,0-7,.938,19.221,19.221,0,0,1-3.077.605,28.935,28.935,0,0,1-5.018.009c-2.13-.064-.245.54.573,1.1l-2.865-.7,1.8,1.069c.254.463-2.1.14-4.3-.1s-4.231-.391-3.176.383l2.106.439a5.993,5.993,0,0,0-1.364.309,3.676,3.676,0,0,1-1.991-.158c.257.1,1.668.55.408.354l-1.46-.371q.287.5.6.995a17.751,17.751,0,0,1-4.014-.718A11,11,0,0,0,.02,17.178c-.255.3,2.007,1.5,3.3,1.692a13.063,13.063,0,0,1,3.231.442l.059.325c2.115.553,4.158,1.133,6.265,1.627a49.541,49.541,0,0,0,6.6,1.133l-1.5-.882,2.457.461-.828.214c2.513.4,1.11-.109.312-.486a25.849,25.849,0,0,0,2.767.5q-1.489-.629-2.953-1.263a26.032,26.032,0,0,0,4.468,1.049c-1.357-.589-4.234-.873-4.591-1.361,2.481.4,3.876.84,2.886.288a6.044,6.044,0,0,1,1.955.65c-.368-.225-.128-.332-.039-.464s.047-.284-.91-.607c2.924.525,1.395-.515,5.247.56-.757-.287-2.03-1.019-1.644-1.16,3.647,1.457,2.3-.281,6.956,1.15-1.706-.644-1.509-.89-.985-1.074s1.33-.319.877-.755c.244.106.747.319.426.278a30.818,30.818,0,0,1,3.725.443c-3.205-.992-2.792-1.408-4.161-2.12,4.058.8,3.263,1.247,6.579,2.111-2.693-.788-1.066-1.055-3.553-1.67a36.374,36.374,0,0,1,4.587.957c-3.89-1.259-.023-.31-1.881-1.164,3,.455,3.986,1.127,3.906.575a5.179,5.179,0,0,1,1.726.562,1.426,1.426,0,0,1,.425.334M67.5,13.557l.036.015c-.214.047-.4.087-.51.113.1-.025.243-.06.474-.128m2.473-.294a9.891,9.891,0,0,0-1.156.092c-.712-.259-1.258-.546-.97-.56a10.683,10.683,0,0,0,2.125.468M51.726,8.522c.175-.159.688-.024,1.129.127a2.305,2.305,0,0,0-.539.18c.058.03.112.066.179.1a6.984,6.984,0,0,1-.769-.407" transform="translate(0)" fill="#f9ba49"/>
      <path id="Path_215" data-name="Path 215" d="M151.154,123.5c-.02.024.025.061-.037.077.251.057.476.1.675.142l-.439-.259c-.065.014-.14.026-.2.04" transform="translate(-97.737 -113.876)" fill="#f9ba49"/>
      <path id="Path_216" data-name="Path 216" d="M902.431,103.083l-.032-.023a.16.16,0,0,1-.049.127.72.72,0,0,1,.081-.1" transform="translate(-583.606 -95.059)" fill="#f9ba49"/>
      <path id="Path_217" data-name="Path 217" d="M305.752,147.07l-.313-.209.044.2Z" transform="translate(-197.546 -135.458)" fill="#f9ba49"/>
      <path id="Path_218" data-name="Path 218" d="M932.83,154.668c-.091.074-.159.154-.153.225a.426.426,0,0,0,.153-.225" transform="translate(-603.22 -142.66)" fill="#f9ba49"/>
      <path id="Path_219" data-name="Path 219" d="M950.357,163.808l.394.366a.773.773,0,0,0-.394-.366" transform="translate(-614.655 -151.09)" fill="#f9ba49"/>
      <path id="Path_220" data-name="Path 220" d="M962.144,170.264c.319-.137.53-.242.724-.34,0,0,0,0,0-.007Z" transform="translate(-622.278 -156.726)" fill="#f9ba49"/>
      <path id="Path_221" data-name="Path 221" d="M733.046,122.127a.992.992,0,0,0-.228.031c-.6.147-.232.095.228-.031" transform="translate(-473.757 -112.645)" fill="#f9ba49"/>
      <path id="Path_222" data-name="Path 222" d="M805.715,111.284c-.431.14-.853.277-1.228.357a1.162,1.162,0,0,0,1.228-.357" transform="translate(-520.312 -102.644)" fill="#f9ba49"/>
      <path id="Path_223" data-name="Path 223" d="M656.046,123.953l.01-.015c-.059,0-.107,0-.164,0Z" transform="translate(-424.206 -114.312)" fill="#f9ba49"/>
      <path id="Path_224" data-name="Path 224" d="M801.353,114.354a1.382,1.382,0,0,0,1.107.076,2.048,2.048,0,0,0-1.107-.076" transform="translate(-518.285 -105.432)" fill="#f9ba49"/>
      <path id="Path_225" data-name="Path 225" d="M1018.469,203.517l.151.056a2.953,2.953,0,0,1,.3-.124Z" transform="translate(-658.707 -187.653)" fill="#f9ba49"/>
      <path id="Path_226" data-name="Path 226" d="M1019.749,202.574l.45-.067a.865.865,0,0,0-.45.067" transform="translate(-659.535 -186.778)" fill="#f9ba49"/>
      <path id="Path_227" data-name="Path 227" d="M1021.974,200.736l-.951.143a1.658,1.658,0,0,0,.951-.143" transform="translate(-660.359 -185.151)" fill="#f9ba49"/>
      <path id="Path_228" data-name="Path 228" d="M1001.885,191.528l-.66.282a6.985,6.985,0,0,0,.66-.282" transform="translate(-647.554 -176.658)" fill="#f9ba49"/>
      <path id="Path_229" data-name="Path 229" d="M997.213,189.032c.325.111-.105.729.891.609l.526-.224c-1.165.4,0-.831-1.417-.385" transform="translate(-644.96 -174.265)" fill="#f9ba49"/>
      <path id="Path_230" data-name="Path 230" d="M993.636,124.73l1.254.388a1.93,1.93,0,0,1,1.612-.8c-.4-1.125-.876.737-2.866.409" transform="translate(-642.646 -114.332)" fill="#f9ba49"/>
      <path id="Path_231" data-name="Path 231" d="M980.9,114.557c1.187-.066.811-.456,1.178-.63-1.1.235-1.373.3-1.178.63" transform="translate(-634.373 -105.082)" fill="#f9ba49"/>
      <path id="Path_232" data-name="Path 232" d="M870.473,75.094l1.114-.756c-.884.062-.4.295-1.114.756" transform="translate(-562.989 -68.567)" fill="#f9ba49"/>
      <path id="Path_233" data-name="Path 233" d="M834.979,127.013l.088.518,1.209-.682Z" transform="translate(-540.033 -117)" fill="#f9ba49"/>
      <path id="Path_234" data-name="Path 234" d="M839.268,54.126l.459-.091-1.583.206Z" transform="translate(-542.08 -49.84)" fill="#f9ba49"/>
      <path id="Path_235" data-name="Path 235" d="M644.006,23.144l-.173.978c.59-.163,1.167-1.257.173-.978" transform="translate(-416.407 -21.306)" fill="#f9ba49"/>
      <path id="Path_236" data-name="Path 236" d="M554.7,25.481a1.188,1.188,0,0,0-1.7-.323c.683.067,1.349.449,1.7.323" transform="translate(-357.661 -22.984)" fill="#f9ba49"/>
      <path id="Path_237" data-name="Path 237" d="M296.448,42.322l.187-.353-.791.335Z" transform="translate(-191.341 -38.71)" fill="#f9ba49"/>
    </g>
  </g>
</svg>
